<svg width="42" height="42" viewBox="0 0 42 42" fill="none" xmlns="http://www.w3.org/2000/svg">
<path d="M10.8 10L11.5 11.2L12.7 11.8L11.5 12.5L10.8 13.7L10.2 12.5L9 11.8L10.2 11.2L10.8 10Z" fill="white"/>
<path d="M30.8 20L31.5 21.2L32.7 21.8L31.5 22.5L30.8 23.7L30.2 22.5L29 21.8L30.2 21.2L30.8 20Z" fill="white"/>
<path fill-rule="evenodd" clip-rule="evenodd" d="M11 21.7C11 15.6477 15.9477 10.7 22 10.7C23.95 10.7 25.8343 11.1344 27.5145 12.1425C27.8157 12.3232 28 12.6487 28 13C28 13.3512 27.8157 13.6767 27.5145 13.8574C24.7937 15.4899 23 18.3762 23 21.7C23 25.0391 24.8057 28.0071 27.493 29.5299C27.8103 29.7097 28.0046 30.0481 27.9999 30.4127C27.9953 30.7774 27.7924 31.1107 27.4706 31.2823C25.8477 32.1478 23.9873 32.7 22 32.7C15.9477 32.7 11 27.7522 11 21.7Z" fill="white"/>
</svg>
