<svg width="42" height="42" viewBox="0 0 42 42" fill="none" xmlns="http://www.w3.org/2000/svg">
<path fill-rule="evenodd" clip-rule="evenodd" d="M21 29C21.5523 29 22 29.4477 22 30V33C22 33.5523 21.5523 34 21 34C20.4477 34 20 33.5523 20 33V30C20 29.4477 20.4477 29 21 29Z" fill="#FFA500"/>
<path fill-rule="evenodd" clip-rule="evenodd" d="M15.3431 26.6568C15.7336 27.0473 15.7336 27.6805 15.3431 28.071L13.2218 30.1923C12.8312 30.5829 12.1981 30.5829 11.8076 30.1923C11.417 29.8018 11.417 29.1687 11.8076 28.7781L13.9289 26.6568C14.3194 26.2663 14.9526 26.2663 15.3431 26.6568Z" fill="#FFA500"/>
<path fill-rule="evenodd" clip-rule="evenodd" d="M13 21C13 21.5523 12.5523 22 12 22H9C8.44772 22 8 21.5523 8 21C8 20.4477 8.44772 20 9 20H12C12.5523 20 13 20.4477 13 21Z" fill="#FFA500"/>
<path fill-rule="evenodd" clip-rule="evenodd" d="M15.3432 15.3431C14.9527 15.7336 14.3195 15.7336 13.929 15.3431L11.8077 13.2218C11.4171 12.8312 11.4171 12.1981 11.8077 11.8076C12.1982 11.417 12.8313 11.417 13.2219 11.8076L15.3432 13.9289C15.7337 14.3194 15.7337 14.9526 15.3432 15.3431Z" fill="#FFA500"/>
<path fill-rule="evenodd" clip-rule="evenodd" d="M21 13C20.4477 13 20 12.5523 20 12V9C20 8.44772 20.4477 8 21 8C21.5523 8 22 8.44772 22 9V12C22 12.5523 21.5523 13 21 13Z" fill="#FFA500"/>
<path fill-rule="evenodd" clip-rule="evenodd" d="M26.6569 15.3432C26.2664 14.9527 26.2664 14.3195 26.6569 13.929L28.7782 11.8077C29.1688 11.4171 29.8019 11.4171 30.1924 11.8077C30.583 12.1982 30.583 12.8313 30.1924 13.2219L28.0711 15.3432C27.6806 15.7337 27.0474 15.7337 26.6569 15.3432Z" fill="#FFA500"/>
<path fill-rule="evenodd" clip-rule="evenodd" d="M29 21C29 20.4477 29.4477 20 30 20H33C33.5523 20 34 20.4477 34 21C34 21.5523 33.5523 22 33 22H30C29.4477 22 29 21.5523 29 21Z" fill="#FFA500"/>
<path fill-rule="evenodd" clip-rule="evenodd" d="M26.6568 26.6569C27.0473 26.2664 27.6805 26.2664 28.071 26.6569L30.1923 28.7782C30.5829 29.1688 30.5829 29.8019 30.1923 30.1924C29.8018 30.583 29.1687 30.583 28.7781 30.1924L26.6568 28.0711C26.2663 27.6806 26.2663 27.0474 26.6568 26.6569Z" fill="#FFA500"/>
<path fill-rule="evenodd" clip-rule="evenodd" d="M15 21C15 17.6863 17.6863 15 21 15C24.3137 15 27 17.6863 27 21C27 24.3137 24.3137 27 21 27C17.6863 27 15 24.3137 15 21Z" fill="#FFA500"/>
</svg>
