<svg width="42" height="42" viewBox="0 0 42 42" fill="none" xmlns="http://www.w3.org/2000/svg">
<path fill-rule="evenodd" clip-rule="evenodd" d="M14 27C14.5523 27 15 27.4477 15 28V31C15 31.5523 14.5523 32 14 32C13.4477 32 13 31.5523 13 31V28C13 27.4477 13.4477 27 14 27Z" fill="#FFA500"/>
<path fill-rule="evenodd" clip-rule="evenodd" d="M8.34309 24.6568C8.73362 25.0473 8.73362 25.6805 8.34309 26.071L6.22177 28.1923C5.83125 28.5829 5.19808 28.5829 4.80756 28.1923C4.41703 27.8018 4.41703 27.1687 4.80756 26.7781L6.92888 24.6568C7.3194 24.2663 7.95257 24.2663 8.34309 24.6568Z" fill="#FFA500"/>
<path fill-rule="evenodd" clip-rule="evenodd" d="M6 19C6 19.5523 5.55228 20 5 20H2C1.44772 20 1 19.5523 1 19C1 18.4477 1.44772 18 2 18H5C5.55228 18 6 18.4477 6 19Z" fill="#FFA500"/>
<path fill-rule="evenodd" clip-rule="evenodd" d="M8.34319 13.3431C7.95266 13.7336 7.3195 13.7336 6.92897 13.3431L4.80765 11.2218C4.41713 10.8312 4.41713 10.1981 4.80765 9.80756C5.19818 9.41703 5.83134 9.41703 6.22187 9.80756L8.34319 11.9289C8.73371 12.3194 8.73371 12.9526 8.34319 13.3431Z" fill="#FFA500"/>
<path fill-rule="evenodd" clip-rule="evenodd" d="M14 11C13.4477 11 13 10.5523 13 10V7C13 6.44772 13.4477 6 14 6C14.5523 6 15 6.44772 15 7V10C15 10.5523 14.5523 11 14 11Z" fill="#FFA500"/>
<path fill-rule="evenodd" clip-rule="evenodd" d="M19.6569 13.3432C19.2664 12.9527 19.2664 12.3195 19.6569 11.929L21.7782 9.80765C22.1688 9.41713 22.8019 9.41713 23.1924 9.80765C23.583 10.1982 23.583 10.8313 23.1924 11.2219L21.0711 13.3432C20.6806 13.7337 20.0474 13.7337 19.6569 13.3432Z" fill="#FFA500"/>
<path fill-rule="evenodd" clip-rule="evenodd" d="M22 19C22 18.4477 22.4477 18 23 18H26C26.5523 18 27 18.4477 27 19C27 19.5523 26.5523 20 26 20H23C22.4477 20 22 19.5523 22 19Z" fill="#FFA500"/>
<path fill-rule="evenodd" clip-rule="evenodd" d="M19.6568 24.6569C20.0473 24.2664 20.6805 24.2664 21.071 24.6569L23.1923 26.7782C23.5829 27.1688 23.5829 27.8019 23.1923 28.1924C22.8018 28.583 22.1687 28.583 21.7781 28.1924L19.6568 26.0711C19.2663 25.6806 19.2663 25.0474 19.6568 24.6569Z" fill="#FFA500"/>
<path fill-rule="evenodd" clip-rule="evenodd" d="M8 19C8 15.6863 10.6863 13 14 13C17.3137 13 20 15.6863 20 19C20 22.3137 17.3137 25 14 25C10.6863 25 8 22.3137 8 19Z" fill="#FFA500"/>
<path d="M40.7001 26.3999C40.7001 21.7999 37.0001 18.1999 32.5001 18.1999C31.5001 18.1999 30.6001 18.3999 29.7001 18.6999C29.4001 15.2999 26.6001 12.4999 23.1001 12.4999C19.4001 12.4999 16.4001 15.4999 16.4001 19.1999C16.4001 19.9999 16.6001 20.7999 16.8001 21.4999C16.5001 21.3999 16.1001 21.3999 15.8001 21.3999C12.1001 21.3999 9.1001 24.3999 9.1001 28.0999C9.1001 31.6999 12.0001 34.6999 15.6001 34.7999H32.8001C37.2001 34.2999 40.7001 30.7999 40.7001 26.3999Z" fill="#57A0EE"/>
<path fill-rule="evenodd" clip-rule="evenodd" d="M15.8 19.1999C15.8 15.1685 19.0686 11.8999 23.1 11.8999C26.6802 11.8999 29.5656 14.5687 30.1976 17.9221C30.9238 17.725 31.6781 17.5999 32.5 17.5999C37.3266 17.5999 41.3 21.4638 41.3 26.3999C41.3 31.142 37.5328 34.8659 32.8677 35.3961C32.8453 35.3986 32.8226 35.3999 32.8 35.3999H15.6L15.5833 35.3997C11.6566 35.2906 8.5 32.0228 8.5 28.0999C8.5 24.0685 11.7686 20.7999 15.8 20.7999C15.8109 20.7999 15.8222 20.7999 15.8339 20.7999C15.883 20.7998 15.9384 20.7998 15.9986 20.8005C15.8855 20.2978 15.8 19.7529 15.8 19.1999ZM23.1 13.0999C19.7314 13.0999 17 15.8313 17 19.1999C17 19.9099 17.1785 20.6408 17.3769 21.3351C17.4381 21.5491 17.3757 21.7794 17.2149 21.9333C17.0542 22.0872 16.8214 22.1395 16.6103 22.0691C16.4212 22.0061 16.128 21.9999 15.8 21.9999C12.4314 21.9999 9.7 24.7313 9.7 28.0999C9.7 31.3743 12.3391 34.1047 15.6085 34.1999H32.7655C36.8845 33.7163 40.1 30.447 40.1 26.3999C40.1 22.136 36.6734 18.7999 32.5 18.7999C31.5839 18.7999 30.7502 18.9823 29.8897 19.2691C29.7156 19.3272 29.5244 19.3023 29.3709 19.2016C29.2174 19.1009 29.1185 18.9355 29.1023 18.7526C28.8275 15.638 26.2652 13.0999 23.1 13.0999Z" fill="white"/>
</svg>
