<svg width="42" height="42" viewBox="0 0 42 42" fill="none" xmlns="http://www.w3.org/2000/svg">
<path fill-rule="evenodd" clip-rule="evenodd" d="M14 27C14.5523 27 15 27.4477 15 28V31C15 31.5523 14.5523 32 14 32C13.4477 32 13 31.5523 13 31V28C13 27.4477 13.4477 27 14 27Z" fill="white"/>
<path fill-rule="evenodd" clip-rule="evenodd" d="M8.34309 24.6568C8.73362 25.0473 8.73362 25.6805 8.34309 26.071L6.22177 28.1923C5.83125 28.5829 5.19808 28.5829 4.80756 28.1923C4.41703 27.8018 4.41703 27.1687 4.80756 26.7781L6.92888 24.6568C7.3194 24.2663 7.95257 24.2663 8.34309 24.6568Z" fill="white"/>
<path fill-rule="evenodd" clip-rule="evenodd" d="M6 19C6 19.5523 5.55228 20 5 20H2C1.44772 20 1 19.5523 1 19C1 18.4477 1.44772 18 2 18H5C5.55228 18 6 18.4477 6 19Z" fill="white"/>
<path fill-rule="evenodd" clip-rule="evenodd" d="M8.34319 13.3431C7.95266 13.7336 7.3195 13.7336 6.92897 13.3431L4.80765 11.2218C4.41713 10.8312 4.41713 10.1981 4.80765 9.80756C5.19818 9.41703 5.83134 9.41703 6.22187 9.80756L8.34319 11.9289C8.73371 12.3194 8.73371 12.9526 8.34319 13.3431Z" fill="white"/>
<path fill-rule="evenodd" clip-rule="evenodd" d="M14 11C13.4477 11 13 10.5523 13 10V7C13 6.44772 13.4477 6 14 6C14.5523 6 15 6.44772 15 7V10C15 10.5523 14.5523 11 14 11Z" fill="white"/>
<path fill-rule="evenodd" clip-rule="evenodd" d="M22 19C22 18.4477 22.4477 18 23 18H26C26.5523 18 27 18.4477 27 19C27 19.5523 26.5523 20 26 20H23C22.4477 20 22 19.5523 22 19Z" fill="white"/>
<path fill-rule="evenodd" clip-rule="evenodd" d="M19.6568 24.6569C20.0473 24.2664 20.6805 24.2664 21.071 24.6569L23.1923 26.7782C23.5829 27.1688 23.5829 27.8019 23.1923 28.1924C22.8018 28.583 22.1687 28.583 21.7781 28.1924L19.6568 26.0711C19.2663 25.6806 19.2663 25.0474 19.6568 24.6569Z" fill="white"/>
<path fill-rule="evenodd" clip-rule="evenodd" d="M19.4008 12.9054C20.3203 12.3638 21.3689 12.0179 22.4892 11.9251L23.1924 11.2219C23.583 10.8314 23.583 10.1982 23.1924 9.80766C22.8019 9.41714 22.1688 9.41714 21.7782 9.80766L19.6569 11.929C19.3925 12.1934 19.3071 12.5691 19.4008 12.9054Z" fill="white"/>
<path fill-rule="evenodd" clip-rule="evenodd" d="M17.7061 14.2811C16.5221 15.5787 15.8 17.3051 15.8 19.1999C15.8 19.7529 15.8855 20.2978 15.9986 20.8005C15.9384 20.7998 15.883 20.7998 15.8339 20.7999L15.8 20.7999C13.4885 20.7999 11.4278 21.8745 10.0902 23.5513C8.81045 22.451 8 20.8201 8 19C8 15.6863 10.6863 13 14 13C15.3988 13 16.6858 13.4787 17.7061 14.2811Z" fill="white"/>
<path d="M40.7001 26.3999C40.7001 21.7999 37.0001 18.1999 32.5001 18.1999C31.5001 18.1999 30.6001 18.3999 29.7001 18.6999C29.4001 15.2999 26.6001 12.4999 23.1001 12.4999C19.4001 12.4999 16.4001 15.4999 16.4001 19.1999C16.4001 19.9999 16.6001 20.7999 16.8001 21.4999C16.5001 21.3999 16.1001 21.3999 15.8001 21.3999C12.1001 21.3999 9.1001 24.3999 9.1001 28.0999C9.1001 31.6999 12.0001 34.6999 15.6001 34.7999H32.8001C37.2001 34.2999 40.7001 30.7999 40.7001 26.3999Z" fill="white"/>
</svg>
