<svg width="42" height="42" viewBox="0 0 42 42" fill="none" xmlns="http://www.w3.org/2000/svg">
<path d="M24.14 7L24.7 7.96L25.66 8.44L24.7 9L24.14 9.96L23.66 9L22.7 8.44L23.66 7.96L24.14 7Z" fill="white"/>
<path d="M39.14 15L39.7 15.96L40.66 16.44L39.7 17L39.14 17.96L38.66 17L37.7 16.44L38.66 15.96L39.14 15Z" fill="white"/>
<path fill-rule="evenodd" clip-rule="evenodd" d="M24.2998 16.3601C24.2998 11.5182 28.258 7.56006 33.0998 7.56006C34.6598 7.56006 36.1673 7.90758 37.5114 8.71406C37.7524 8.85864 37.8998 9.11905 37.8998 9.40006C37.8998 9.68107 37.7524 9.94147 37.5114 10.0861C35.3347 11.3921 33.8998 13.701 33.8998 16.3601C33.8998 19.0314 35.3444 21.4058 37.4942 22.624C37.7481 22.7679 37.9035 23.0385 37.8997 23.3303C37.896 23.622 37.7337 23.8886 37.4763 24.0259C36.178 24.7184 34.6897 25.1601 33.0998 25.1601C28.258 25.1601 24.2998 21.2019 24.2998 16.3601Z" fill="white"/>
<path d="M33.2001 26.1999C33.2001 21.5999 29.5001 17.9999 25.0001 17.9999C24.0001 17.9999 23.1001 18.1999 22.2001 18.4999C21.9001 15.0999 19.1001 12.2999 15.6001 12.2999C11.9001 12.2999 8.9001 15.2999 8.9001 18.9999C8.9001 19.7999 9.1001 20.5999 9.3001 21.2999C9.0001 21.1999 8.6001 21.1999 8.3001 21.1999C4.6001 21.1999 1.6001 24.1999 1.6001 27.8999C1.6001 31.4999 4.5001 34.4999 8.1001 34.5999H25.3001C29.7001 34.0999 33.2001 30.5999 33.2001 26.1999Z" fill="#57A0EE"/>
<path fill-rule="evenodd" clip-rule="evenodd" d="M8.3 19C8.3 14.9686 11.5686 11.7 15.6 11.7C19.1802 11.7 22.0656 14.3687 22.6976 17.7221C23.4238 17.5251 24.1781 17.4 25 17.4C29.8266 17.4 33.8 21.2638 33.8 26.2C33.8 30.942 30.0328 34.666 25.3677 35.1961C25.3453 35.1987 25.3226 35.2 25.3 35.2H8.1L8.08334 35.1997C4.15655 35.0906 1 31.8228 1 27.9C1 23.8686 4.26863 20.6 8.3 20.6C8.31092 20.6 8.32223 20.5999 8.33389 20.5999C8.38299 20.5999 8.43842 20.5998 8.4986 20.6005C8.38549 20.0978 8.3 19.5529 8.3 19ZM15.6 12.9C12.2314 12.9 9.5 15.6313 9.5 19C9.5 19.71 9.67854 20.4408 9.87691 21.1351C9.93806 21.3491 9.87571 21.5794 9.71495 21.7333C9.55418 21.8873 9.32141 21.9395 9.11026 21.8692C8.92122 21.8061 8.62802 21.8 8.3 21.8C4.93137 21.8 2.2 24.5313 2.2 27.9C2.2 31.1744 4.83908 33.9047 8.10855 34H25.2655C29.3845 33.5163 32.6 30.247 32.6 26.2C32.6 21.9361 29.1734 18.6 25 18.6C24.0839 18.6 23.2502 18.7823 22.3897 19.0692C22.2156 19.1272 22.0244 19.1023 21.8709 19.0017C21.7174 18.901 21.6185 18.7356 21.6023 18.5527C21.3275 15.4381 18.7652 12.9 15.6 12.9Z" fill="white"/>
</svg>
