<svg width="42" height="42" viewBox="0 0 42 42" fill="none" xmlns="http://www.w3.org/2000/svg">
<path d="M24.14 7L24.7 7.96L25.66 8.44L24.7 9L24.14 9.96L23.66 9L22.7 8.44L23.66 7.96L24.14 7Z" fill="white"/>
<path d="M39.14 15L39.7 15.96L40.66 16.44L39.7 17L39.14 17.96L38.66 17L37.7 16.44L38.66 15.96L39.14 15Z" fill="white"/>
<path fill-rule="evenodd" clip-rule="evenodd" d="M33.0998 7.56006C28.258 7.56006 24.2998 11.5182 24.2998 16.3601C24.2998 16.7203 24.3217 17.0757 24.3643 17.425C24.5719 17.4086 24.7836 17.4 24.9999 17.4C29.4739 17.4 33.2148 20.7199 33.7375 25.1364C35.0878 25.0363 36.3531 24.625 37.4763 24.0259C37.7337 23.8886 37.896 23.622 37.8997 23.3303C37.9035 23.0385 37.7481 22.7679 37.4942 22.624C35.3444 21.4058 33.8998 19.0314 33.8998 16.3601C33.8998 13.701 35.3347 11.3921 37.5114 10.0861C37.7524 9.94147 37.8998 9.68107 37.8998 9.40006C37.8998 9.11905 37.7524 8.85864 37.5114 8.71406C36.1673 7.90758 34.6598 7.56006 33.0998 7.56006Z" fill="white"/>
<path d="M33.2001 26.1999C33.2001 21.5999 29.5001 17.9999 25.0001 17.9999C24.0001 17.9999 23.1001 18.1999 22.2001 18.4999C21.9001 15.0999 19.1001 12.2999 15.6001 12.2999C11.9001 12.2999 8.9001 15.2999 8.9001 18.9999C8.9001 19.7999 9.1001 20.5999 9.3001 21.2999C9.0001 21.1999 8.6001 21.1999 8.3001 21.1999C4.6001 21.1999 1.6001 24.1999 1.6001 27.8999C1.6001 31.4999 4.5001 34.4999 8.1001 34.5999H25.3001C29.7001 34.0999 33.2001 30.5999 33.2001 26.1999Z" fill="white"/>
</svg>
