<svg width="42" height="42" viewBox="0 0 42 42" fill="none" xmlns="http://www.w3.org/2000/svg">
<path d="M22.9441 41.0043C27.1523 35.7379 36.75 22.9739 36.75 15.8043C36.75 7.10901 29.6953 0.0543213 21 0.0543213C12.3047 0.0543213 5.25 7.10901 5.25 15.8043C5.25 22.9739 14.8477 35.7379 19.0559 41.0043C20.0648 42.2594 21.9352 42.2594 22.9441 41.0043ZM21 10.5543C22.3924 10.5543 23.7277 11.1074 24.7123 12.092C25.6969 13.0766 26.25 14.4119 26.25 15.8043C26.25 17.1967 25.6969 18.5321 24.7123 19.5166C23.7277 20.5012 22.3924 21.0543 21 21.0543C19.6076 21.0543 18.2723 20.5012 17.2877 19.5166C16.3031 18.5321 15.75 17.1967 15.75 15.8043C15.75 14.4119 16.3031 13.0766 17.2877 12.092C18.2723 11.1074 19.6076 10.5543 21 10.5543Z" fill="white"/>
</svg>
