<svg width="42" height="42" viewBox="0 0 42 42" fill="none" xmlns="http://www.w3.org/2000/svg">
<path d="M20.8201 18.3399C20.8201 15.5799 18.6001 13.4199 15.9001 13.4199C15.3001 13.4199 14.7601 13.5399 14.2201 13.7199C14.0401 11.6799 12.3601 9.99988 10.2601 9.99988C8.04011 9.99988 6.24011 11.7999 6.24011 14.0199C6.24011 14.4999 6.36011 14.9799 6.48011 15.3999C6.30011 15.3399 6.06011 15.3399 5.88011 15.3399C3.66011 15.3399 1.86011 17.1399 1.86011 19.3599C1.86011 21.5199 3.60011 23.3199 5.76011 23.3799H16.0801C18.7201 23.0799 20.8201 20.9799 20.8201 18.3399Z" fill="#91C0F8"/>
<path fill-rule="evenodd" clip-rule="evenodd" d="M5.88 14.0199C5.88 11.6011 7.84118 9.63989 10.26 9.63989C12.4081 9.63989 14.1394 11.2412 14.5186 13.2532C14.9543 13.135 15.4069 13.0599 15.9 13.0599C18.796 13.0599 21.18 15.3782 21.18 18.3399C21.18 21.1851 18.9197 23.4195 16.1206 23.7376C16.1072 23.7391 16.0936 23.7399 16.08 23.7399H5.75C3.39393 23.6744 1.5 21.7136 1.5 19.3599C1.5 16.9411 3.46118 14.9799 5.88 14.9799C5.88656 14.9799 5.89334 14.9799 5.90034 14.9799C5.9298 14.9799 5.96306 14.9798 5.99916 14.9802C5.93129 14.6786 5.88 14.3517 5.88 14.0199ZM10.26 10.3599C8.23882 10.3599 6.6 11.9987 6.6 14.0199C6.6 14.4459 6.70713 14.8844 6.82615 15.301C6.86284 15.4294 6.82543 15.5676 6.72897 15.6599C6.63251 15.7523 6.49285 15.7836 6.36616 15.7414C6.25273 15.7036 6.07681 15.6999 5.88 15.6999C3.85882 15.6999 2.22 17.3387 2.22 19.3599C2.22 21.3245 3.80343 22.9628 5.7651 23.0199H16.0593C18.5307 22.7297 20.46 20.7681 20.46 18.3399C20.46 15.7816 18.404 13.7799 15.9 13.7799C15.3504 13.7799 14.8501 13.8893 14.3338 14.0614C14.2293 14.0963 14.1147 14.0813 14.0226 14.0209C13.9305 13.9605 13.8711 13.8613 13.8614 13.7515C13.6965 11.8828 12.1591 10.3599 10.26 10.3599Z" fill="white"/>
<path d="M39.9 23.5C39.9 18.9 36.2 15.3 31.7 15.3C30.7 15.3 29.8 15.5 28.9 15.8C28.6 12.4 25.8 9.59998 22.3 9.59998C18.6 9.59998 15.6 12.6 15.6 16.3C15.6 17.1 15.8 17.9 16 18.6C15.7 18.5 15.3 18.5 15 18.5C11.3 18.5 8.30005 21.5 8.30005 25.2C8.30005 28.8 11.2 31.8 14.8 31.9H32C36.4 31.4 39.9 27.9 39.9 23.5Z" fill="#57A0EE"/>
<path fill-rule="evenodd" clip-rule="evenodd" d="M15 16.3C15 12.2686 18.2686 9 22.3 9C25.8801 9 28.7656 11.6688 29.3975 15.0221C30.1238 14.8251 30.878 14.7 31.7 14.7C36.5265 14.7 40.5 18.5639 40.5 23.5C40.5 28.2421 36.7328 31.966 32.0677 32.4962C32.0452 32.4987 32.0226 32.5 32 32.5H14.8L14.7833 32.4998C10.8565 32.3907 7.69995 29.1228 7.69995 25.2C7.69995 21.1686 10.9686 17.9 14.9999 17.9C15.0109 17.9 15.0222 17.9 15.0338 17.9C15.0829 17.8999 15.1384 17.8999 15.1986 17.9006C15.0854 17.3979 15 16.853 15 16.3ZM22.3 10.2C18.9313 10.2 16.2 12.9314 16.2 16.3C16.2 17.01 16.3785 17.7409 16.5769 18.4352C16.638 18.6492 16.5757 18.8795 16.4149 19.0334C16.2541 19.1873 16.0214 19.2396 15.8102 19.1692C15.6212 19.1062 15.328 19.1 14.9999 19.1C11.6313 19.1 8.89995 21.8314 8.89995 25.2C8.89995 28.4744 11.539 31.2048 14.8085 31.3H31.9654C36.0845 30.8164 39.3 27.5471 39.3 23.5C39.3 19.2361 35.8734 15.9 31.7 15.9C30.7839 15.9 29.9502 16.0824 29.0897 16.3692C28.9155 16.4273 28.7244 16.4024 28.5709 16.3017C28.4174 16.201 28.3184 16.0356 28.3023 15.8527C28.0275 12.7381 25.4652 10.2 22.3 10.2Z" fill="white"/>
</svg>
