<svg width="42" height="42" viewBox="0 0 42 42" fill="none" xmlns="http://www.w3.org/2000/svg">
<path fill-rule="evenodd" clip-rule="evenodd" d="M15.7557 13.062C15.272 14.0378 15 15.1372 15 16.3C15 16.853 15.0855 17.3979 15.1986 17.9006C15.1384 17.8999 15.083 17.8999 15.0339 17.9L15 17.9C11.4687 17.9 8.52259 20.4081 7.84609 23.7399H5.75C3.39393 23.6744 1.5 21.7136 1.5 19.3599C1.5 16.9411 3.46118 14.9799 5.88 14.9799L5.90034 14.9799C5.9298 14.9799 5.96306 14.9798 5.99916 14.9802C5.93129 14.6786 5.88 14.3517 5.88 14.0199C5.88 11.6011 7.84118 9.63989 10.26 9.63989C12.4081 9.63989 14.1394 11.2412 14.5186 13.2532C14.9115 13.1466 15.318 13.0751 15.7557 13.062Z" fill="white"/>
<path d="M39.8998 23.5C39.8998 18.9 36.1998 15.3 31.6998 15.3C30.6998 15.3 29.7998 15.5 28.8998 15.8C28.5998 12.4 25.7998 9.59998 22.2998 9.59998C18.5998 9.59998 15.5998 12.6 15.5998 16.3C15.5998 17.1 15.7998 17.9 15.9998 18.6C15.6998 18.5 15.2998 18.5 14.9998 18.5C11.2998 18.5 8.2998 21.5 8.2998 25.2C8.2998 28.8 11.1998 31.8 14.7998 31.9H31.9998C36.3998 31.4 39.8998 27.9 39.8998 23.5Z" fill="white"/>
</svg>
