<svg width="42" height="42" viewBox="0 0 42 42" fill="none" xmlns="http://www.w3.org/2000/svg">
<path d="M37.2001 17.5C37.2001 12.9 33.5001 9.29998 29.0001 9.29998C28.0001 9.29998 27.1001 9.49998 26.2001 9.79998C25.9001 6.39998 23.1001 3.59998 19.6001 3.59998C15.9001 3.59998 12.9001 6.59998 12.9001 10.3C12.9001 11.1 13.1001 11.9 13.3001 12.6C13.0001 12.5 12.6001 12.5 12.3001 12.5C8.6001 12.5 5.6001 15.5 5.6001 19.2C5.6001 22.8 8.5001 25.8 12.1001 25.9H29.3001C33.7001 25.4 37.2001 21.9 37.2001 17.5Z" fill="#57A0EE"/>
<path fill-rule="evenodd" clip-rule="evenodd" d="M12.3 10.3C12.3 6.26863 15.5686 3 19.6 3C23.1802 3 26.0656 5.6688 26.6976 9.02215C27.4238 8.82513 28.1781 8.7 29 8.7C33.8266 8.7 37.8 12.5639 37.8 17.5C37.8 22.2421 34.0328 25.966 29.3677 26.4962C29.3453 26.4987 29.3226 26.5 29.3 26.5H12.1L12.0833 26.4998C8.15655 26.3907 5 23.1228 5 19.2C5 15.1686 8.26863 11.9 12.3 11.9C12.3109 11.9 12.3222 11.9 12.3339 11.9C12.383 11.8999 12.4384 11.8999 12.4986 11.9006C12.3855 11.3979 12.3 10.853 12.3 10.3ZM19.6 4.2C16.2314 4.2 13.5 6.93137 13.5 10.3C13.5 11.01 13.6785 11.7409 13.8769 12.4352C13.9381 12.6492 13.8757 12.8795 13.7149 13.0334C13.5542 13.1873 13.3214 13.2396 13.1103 13.1692C12.9212 13.1062 12.628 13.1 12.3 13.1C8.93137 13.1 6.2 15.8314 6.2 19.2C6.2 22.4744 8.83908 25.2048 12.1085 25.3H29.2655C33.3845 24.8164 36.6 21.5471 36.6 17.5C36.6 13.2361 33.1734 9.9 29 9.9C28.0839 9.9 27.2502 10.0824 26.3897 10.3692C26.2156 10.4273 26.0244 10.4024 25.8709 10.3017C25.7174 10.201 25.6185 10.0356 25.6023 9.85274C25.3275 6.73811 22.7652 4.2 19.6 4.2Z" fill="white"/>
<path fill-rule="evenodd" clip-rule="evenodd" d="M16.5607 28.4053C17.1046 28.5012 17.4678 29.0199 17.3719 29.5638L17.0246 31.5334C16.9287 32.0773 16.41 32.4405 15.8661 32.3446C15.3222 32.2487 14.9591 31.73 15.055 31.1861L15.4023 29.2165C15.4982 28.6726 16.0168 28.3094 16.5607 28.4053ZM15.5188 34.3142C16.0627 34.4101 16.4259 34.9287 16.33 35.4726L15.9827 37.4423C15.8868 37.9862 15.3681 38.3493 14.8243 38.2534C14.2804 38.1575 13.9172 37.6389 14.0131 37.095L14.3604 35.1253C14.4563 34.5814 14.975 34.2183 15.5188 34.3142Z" fill="#91C0F8"/>
<path fill-rule="evenodd" clip-rule="evenodd" d="M20.8474 27.1303C21.3913 27.2262 21.7544 27.7449 21.6585 28.2888L21.3112 30.2584C21.2153 30.8023 20.6967 31.1654 20.1528 31.0695C19.6089 30.9736 19.2457 30.455 19.3416 29.9111L19.6889 27.9415C19.7848 27.3976 20.3035 27.0344 20.8474 27.1303ZM19.8055 33.0392C20.3494 33.1351 20.7125 33.6537 20.6166 34.1976L20.2693 36.1672C20.1734 36.7111 19.6548 37.0743 19.1109 36.9784C18.567 36.8825 18.2038 36.3638 18.2997 35.8199L18.647 33.8503C18.7429 33.3064 19.2616 32.9433 19.8055 33.0392Z" fill="#91C0F8"/>
<path fill-rule="evenodd" clip-rule="evenodd" d="M24.613 28.8098C25.1569 28.9057 25.52 29.4243 25.4241 29.9682L25.0768 31.9378C24.9809 32.4817 24.4623 32.8449 23.9184 32.749C23.3745 32.6531 23.0113 32.1344 23.1072 31.5905L23.4545 29.6209C23.5504 29.077 24.0691 28.7139 24.613 28.8098ZM23.5711 34.7186C24.115 34.8145 24.4782 35.3332 24.3823 35.8771L24.035 37.8467C23.9391 38.3906 23.4204 38.7537 22.8765 38.6578C22.3326 38.5619 21.9694 38.0433 22.0653 37.4994L22.4126 35.5298C22.5085 34.9859 23.0272 34.6227 23.5711 34.7186Z" fill="#91C0F8"/>
</svg>
