<svg width="42" height="42" viewBox="0 0 42 42" fill="none" xmlns="http://www.w3.org/2000/svg">
<path d="M37.2001 18.5C37.2001 13.9 33.5001 10.3 29.0001 10.3C28.0001 10.3 27.1001 10.5 26.2001 10.8C25.9001 7.39998 23.1001 4.59998 19.6001 4.59998C15.9001 4.59998 12.9001 7.59998 12.9001 11.3C12.9001 12.1 13.1001 12.9 13.3001 13.6C13.0001 13.5 12.6001 13.5 12.3001 13.5C8.6001 13.5 5.6001 16.5 5.6001 20.2C5.6001 23.8 8.5001 26.8 12.1001 26.9H29.3001C33.7001 26.4 37.2001 22.9 37.2001 18.5Z" fill="#57A0EE"/>
<path fill-rule="evenodd" clip-rule="evenodd" d="M12.3 11.3C12.3 7.26863 15.5686 4 19.6 4C23.1802 4 26.0656 6.6688 26.6976 10.0221C27.4238 9.82513 28.1781 9.7 29 9.7C33.8266 9.7 37.8 13.5639 37.8 18.5C37.8 23.2421 34.0328 26.966 29.3677 27.4962C29.3453 27.4987 29.3226 27.5 29.3 27.5H12.1L12.0833 27.4998C8.15655 27.3907 5 24.1228 5 20.2C5 16.1686 8.26863 12.9 12.3 12.9C12.3109 12.9 12.3222 12.9 12.3339 12.9C12.383 12.8999 12.4384 12.8999 12.4986 12.9006C12.3855 12.3979 12.3 11.853 12.3 11.3ZM19.6 5.2C16.2314 5.2 13.5 7.93137 13.5 11.3C13.5 12.01 13.6785 12.7409 13.8769 13.4352C13.9381 13.6492 13.8757 13.8795 13.7149 14.0334C13.5542 14.1873 13.3214 14.2396 13.1103 14.1692C12.9212 14.1062 12.628 14.1 12.3 14.1C8.93137 14.1 6.2 16.8314 6.2 20.2C6.2 23.4744 8.83908 26.2048 12.1085 26.3H29.2655C33.3845 25.8164 36.6 22.5471 36.6 18.5C36.6 14.2361 33.1734 10.9 29 10.9C28.0839 10.9 27.2502 11.0824 26.3897 11.3692C26.2156 11.4273 26.0244 11.4024 25.8709 11.3017C25.7174 11.201 25.6185 11.0356 25.6023 10.8527C25.3275 7.73811 22.7652 5.2 19.6 5.2Z" fill="white"/>
<path fill-rule="evenodd" clip-rule="evenodd" d="M14.1 29.6C14.1 29.2686 13.8314 29 13.5 29C13.1687 29 12.9 29.2686 12.9 29.6V30.7928L12.0858 29.9786C11.8905 29.7833 11.5739 29.7833 11.3787 29.9786C11.1834 30.1739 11.1834 30.4904 11.3787 30.6857L12.2931 31.6001H11C10.7239 31.6001 10.5 31.824 10.5 32.1001C10.5 32.3762 10.7239 32.6001 11 32.6001H12.293L11.3787 33.5143C11.1835 33.7096 11.1835 34.0262 11.3787 34.2214C11.574 34.4167 11.8906 34.4167 12.0858 34.2214L12.9 33.4073V34.6C12.9 34.9314 13.1687 35.2 13.5 35.2C13.8314 35.2 14.1 34.9314 14.1 34.6V33.4071L14.9142 34.2212C15.1095 34.4165 15.426 34.4165 15.6213 34.2212C15.8166 34.026 15.8166 33.7094 15.6213 33.5141L14.7073 32.6001H16C16.2761 32.6001 16.5 32.3762 16.5 32.1001C16.5 31.824 16.2761 31.6001 16 31.6001H14.7072L15.6214 30.6859C15.8166 30.4906 15.8166 30.1741 15.6214 29.9788C15.4261 29.7835 15.1095 29.7835 14.9143 29.9788L14.1 30.793V29.6Z" fill="white"/>
<path fill-rule="evenodd" clip-rule="evenodd" d="M21.1 32.6C21.1 32.2686 20.8314 32 20.5 32C20.1687 32 19.9 32.2686 19.9 32.6V33.7928L19.0858 32.9786C18.8905 32.7833 18.5739 32.7833 18.3787 32.9786C18.1834 33.1739 18.1834 33.4904 18.3787 33.6857L19.2931 34.6001H18C17.7239 34.6001 17.5 34.824 17.5 35.1001C17.5 35.3762 17.7239 35.6001 18 35.6001H19.293L18.3787 36.5143C18.1835 36.7096 18.1835 37.0262 18.3787 37.2214C18.574 37.4167 18.8906 37.4167 19.0858 37.2214L19.9 36.4073V37.6C19.9 37.9314 20.1687 38.2 20.5 38.2C20.8314 38.2 21.1 37.9314 21.1 37.6V36.4071L21.9142 37.2212C22.1095 37.4165 22.426 37.4165 22.6213 37.2212C22.8166 37.026 22.8166 36.7094 22.6213 36.5141L21.7073 35.6001H23C23.2761 35.6001 23.5 35.3762 23.5 35.1001C23.5 34.824 23.2761 34.6001 23 34.6001H21.7072L22.6214 33.6859C22.8166 33.4906 22.8166 33.1741 22.6214 32.9788C22.4261 32.7835 22.1095 32.7835 21.9143 32.9788L21.1 33.793V32.6Z" fill="white"/>
<path fill-rule="evenodd" clip-rule="evenodd" d="M28.1 29.6C28.1 29.2686 27.8314 29 27.5 29C27.1687 29 26.9 29.2686 26.9 29.6V30.7928L26.0858 29.9786C25.8905 29.7833 25.5739 29.7833 25.3787 29.9786C25.1834 30.1739 25.1834 30.4904 25.3787 30.6857L26.2931 31.6001H25C24.7239 31.6001 24.5 31.824 24.5 32.1001C24.5 32.3762 24.7239 32.6001 25 32.6001H26.293L25.3787 33.5143C25.1835 33.7096 25.1835 34.0262 25.3787 34.2214C25.574 34.4167 25.8906 34.4167 26.0858 34.2214L26.9 33.4073V34.6C26.9 34.9314 27.1687 35.2 27.5 35.2C27.8314 35.2 28.1 34.9314 28.1 34.6V33.4071L28.9142 34.2212C29.1095 34.4165 29.426 34.4165 29.6213 34.2212C29.8166 34.026 29.8166 33.7094 29.6213 33.5141L28.7073 32.6001H30C30.2761 32.6001 30.5 32.3762 30.5 32.1001C30.5 31.824 30.2761 31.6001 30 31.6001H28.7072L29.6214 30.6859C29.8166 30.4906 29.8166 30.1741 29.6214 29.9788C29.4261 29.7835 29.1095 29.7835 28.9143 29.9788L28.1 30.793V29.6Z" fill="white"/>
</svg>
