<svg width="42" height="42" viewBox="0 0 42 42" fill="none" xmlns="http://www.w3.org/2000/svg">
<path d="M22.3201 10.7C22.3201 7.93999 20.1001 5.77999 17.4001 5.77999C16.8001 5.77999 16.2601 5.89999 15.7201 6.07999C15.5401 4.03999 13.8601 2.35999 11.7601 2.35999C9.54011 2.35999 7.74011 4.15999 7.74011 6.37999C7.74011 6.85999 7.86011 7.33998 7.98011 7.75998C7.80011 7.69999 7.56011 7.69999 7.38011 7.69999C5.16011 7.69999 3.36011 9.49998 3.36011 11.72C3.36011 13.88 5.10011 15.68 7.26011 15.74H17.5801C20.2201 15.44 22.3201 13.34 22.3201 10.7Z" fill="#91C0F8"/>
<path fill-rule="evenodd" clip-rule="evenodd" d="M7.38 6.38C7.38 3.96118 9.34118 2 11.76 2C13.9081 2 15.6394 3.60128 16.0186 5.61329C16.4543 5.49508 16.9069 5.42 17.4 5.42C20.296 5.42 22.68 7.73832 22.68 10.7C22.68 13.5452 20.4197 15.7796 17.6206 16.0977C17.6072 16.0992 17.5936 16.1 17.58 16.1H7.25C4.89393 16.0346 3 14.0737 3 11.72C3 9.30118 4.96118 7.34 7.38 7.34C7.38656 7.34 7.39334 7.33999 7.40034 7.33999C7.4298 7.33996 7.46306 7.33993 7.49916 7.34033C7.43129 7.03873 7.38 6.71177 7.38 6.38ZM11.76 2.72C9.73882 2.72 8.1 4.35882 8.1 6.38C8.1 6.80603 8.20713 7.24452 8.32615 7.6611C8.36284 7.78951 8.32543 7.92767 8.22897 8.02003C8.13251 8.11238 7.99285 8.14376 7.86616 8.10153C7.75273 8.06372 7.57681 8.06 7.38 8.06C5.35882 8.06 3.72 9.69882 3.72 11.72C3.72 13.6847 5.30343 15.3229 7.2651 15.38H17.5593C20.0307 15.0898 21.96 13.1282 21.96 10.7C21.96 8.14168 19.904 6.14 17.4 6.14C16.8504 6.14 16.3501 6.24943 15.8338 6.42153C15.7293 6.45636 15.6147 6.44144 15.5226 6.38102C15.4305 6.32061 15.3711 6.22136 15.3614 6.11164C15.1965 4.24287 13.6591 2.72 11.76 2.72Z" fill="white"/>
<path fill-rule="evenodd" clip-rule="evenodd" d="M19.2896 18.7939C19.3701 18.5471 19.6003 18.3801 19.8599 18.3801H27.2999C27.5136 18.3801 27.7112 18.4938 27.8186 18.6786C27.9261 18.8634 27.9271 19.0913 27.8213 19.277L23.4121 27.0201H27.0599C27.2941 27.0201 27.5068 27.1563 27.6048 27.369C27.7028 27.5816 27.6682 27.8319 27.5161 28.0099L16.9561 40.3699C16.7627 40.5962 16.4325 40.6465 16.1805 40.488C15.9285 40.3295 15.8308 40.0101 15.9511 39.7378L19.6591 31.3401H16.0199C15.8277 31.3401 15.6471 31.248 15.5343 31.0924C15.4214 30.9369 15.3899 30.7366 15.4496 30.5539L19.2896 18.7939Z" fill="#FFA500"/>
<path d="M39.4 16.86C39.4 12.26 35.7 8.65996 31.2 8.65996C30.2 8.65996 29.3 8.85996 28.4 9.15996C28.1 5.75996 25.3 2.95996 21.8 2.95996C18.1 2.95996 15.1 5.95996 15.1 9.65996C15.1 10.46 15.3 11.26 15.5 11.96C15.2 11.86 14.8 11.86 14.5 11.86C10.8 11.86 7.80005 14.86 7.80005 18.56C7.80005 22.16 10.7 25.16 14.3 25.26H31.5C35.9 24.76 39.4 21.26 39.4 16.86Z" fill="#57A0EE"/>
<path fill-rule="evenodd" clip-rule="evenodd" d="M14.5 9.65999C14.5 5.62861 17.7686 2.35999 21.8 2.35999C25.3801 2.35999 28.2656 5.02878 28.8975 8.38213C29.6238 8.18511 30.378 8.05999 31.2 8.05999C36.0265 8.05999 40 11.9239 40 16.86C40 21.6021 36.2328 25.326 31.5677 25.8561C31.5452 25.8587 31.5226 25.86 31.5 25.86H14.3L14.2833 25.8598C10.3565 25.7507 7.19995 22.4828 7.19995 18.56C7.19995 14.5286 10.4686 11.26 14.4999 11.26C14.5109 11.26 14.5222 11.26 14.5338 11.26C14.5829 11.2599 14.6384 11.2599 14.6986 11.2605C14.5854 10.7579 14.5 10.2129 14.5 9.65999ZM21.8 3.55999C18.4313 3.55999 15.7 6.29136 15.7 9.65999C15.7 10.37 15.8785 11.1009 16.0769 11.7952C16.138 12.0092 16.0757 12.2394 15.9149 12.3934C15.7541 12.5473 15.5214 12.5996 15.3102 12.5292C15.1212 12.4662 14.828 12.46 14.4999 12.46C11.1313 12.46 8.39995 15.1914 8.39995 18.56C8.39995 21.8344 11.039 24.5648 14.3085 24.66H31.4654C35.5845 24.1764 38.8 20.907 38.8 16.86C38.8 12.5961 35.3734 9.25999 31.2 9.25999C30.2839 9.25999 29.4502 9.44236 28.5897 9.7292C28.4155 9.78725 28.2244 9.76238 28.0709 9.66169C27.9174 9.56101 27.8184 9.39559 27.8023 9.21272C27.5275 6.0981 24.9652 3.55999 21.8 3.55999Z" fill="white"/>
</svg>
