<svg width="42" height="42" viewBox="0 0 42 42" fill="none" xmlns="http://www.w3.org/2000/svg">
<path fill-rule="evenodd" clip-rule="evenodd" d="M11.76 2C9.34118 2 7.38 3.96118 7.38 6.38C7.38 6.71177 7.43129 7.03873 7.49916 7.34033C7.46306 7.33993 7.4298 7.33996 7.40034 7.33999L7.38 7.34C4.96118 7.34 3 9.30118 3 11.72C3 14.0737 4.89393 16.0346 7.25 16.1H7.6249C8.63463 13.2788 11.3317 11.26 14.5 11.26L14.5338 11.26C14.5829 11.2599 14.6384 11.2599 14.6986 11.2606C14.5854 10.7579 14.5 10.213 14.5 9.66C14.5 8.02425 15.0381 6.51407 15.947 5.29687C15.4546 3.43596 13.7942 2 11.76 2Z" fill="white"/>
<path fill-rule="evenodd" clip-rule="evenodd" d="M16.9823 25.86L15.4496 30.5539C15.3899 30.7366 15.4214 30.9368 15.5343 31.0924C15.6471 31.248 15.8277 31.3401 16.0199 31.3401H19.6591L15.9511 39.7377C15.8308 40.0101 15.9285 40.3295 16.1805 40.488C16.4325 40.6465 16.7627 40.5962 16.9561 40.3699L27.5161 28.0098C27.6682 27.8318 27.7028 27.5816 27.6048 27.369C27.5068 27.1563 27.2941 27.0201 27.0599 27.0201H23.4121L24.0727 25.86H16.9823Z" fill="white"/>
<path d="M39.3998 16.86C39.3998 12.26 35.6998 8.65996 31.1998 8.65996C30.1998 8.65996 29.2998 8.85996 28.3998 9.15996C28.0998 5.75996 25.2998 2.95996 21.7998 2.95996C18.0998 2.95996 15.0998 5.95996 15.0998 9.65996C15.0998 10.46 15.2998 11.26 15.4998 11.96C15.1998 11.86 14.7998 11.86 14.4998 11.86C10.7998 11.86 7.7998 14.86 7.7998 18.56C7.7998 22.16 10.6998 25.16 14.2998 25.26H31.4998C35.8998 24.76 39.3998 21.26 39.3998 16.86Z" fill="white"/>
</svg>
