<svg width="42" height="42" viewBox="0 0 42 42" fill="none" xmlns="http://www.w3.org/2000/svg">
<path fill-rule="evenodd" clip-rule="evenodd" d="M9.81166 24.3882C10.2803 24.8568 10.2803 25.6166 9.81166 26.0853L7.26608 28.6308C6.79745 29.0995 6.03765 29.0995 5.56902 28.6308C5.10039 28.1622 5.10039 27.4024 5.56902 26.9338L8.11461 24.3882C8.58324 23.9196 9.34303 23.9196 9.81166 24.3882Z" fill="white"/>
<path fill-rule="evenodd" clip-rule="evenodd" d="M7 17.6C7 18.2628 6.46274 18.8 5.8 18.8H2.2C1.53726 18.8 1 18.2628 1 17.6C1 16.9373 1.53726 16.4 2.2 16.4H5.8C6.46274 16.4 7 16.9373 7 17.6Z" fill="white"/>
<path fill-rule="evenodd" clip-rule="evenodd" d="M9.81187 10.8118C9.34324 11.2804 8.58345 11.2804 8.11482 10.8118L5.56923 8.2662C5.1006 7.79757 5.1006 7.03777 5.56923 6.56914C6.03786 6.10052 6.79766 6.10052 7.26629 6.56914L9.81187 9.11473C10.2805 9.58336 10.2805 10.3432 9.81187 10.8118Z" fill="white"/>
<path fill-rule="evenodd" clip-rule="evenodd" d="M16.6 8C15.9373 8 15.4 7.46274 15.4 6.8V3.2C15.4 2.53726 15.9373 2 16.6 2C17.2628 2 17.8 2.53726 17.8 3.2V6.8C17.8 7.46274 17.2628 8 16.6 8Z" fill="white"/>
<path fill-rule="evenodd" clip-rule="evenodd" d="M23.3883 10.8118C22.9197 10.3431 22.9197 9.58332 23.3883 9.11469L25.9339 6.56911C26.4025 6.10048 27.1623 6.10048 27.6309 6.56911C28.0996 7.03774 28.0996 7.79754 27.6309 8.26617L25.0853 10.8118C24.6167 11.2804 23.8569 11.2804 23.3883 10.8118Z" fill="white"/>
<path fill-rule="evenodd" clip-rule="evenodd" d="M23.3883 24.3882C23.857 23.9195 24.6168 23.9195 25.0854 24.3882L27.631 26.9338C28.0996 27.4024 28.0996 28.1622 27.631 28.6308C27.1623 29.0994 26.4025 29.0994 25.9339 28.6308L23.3883 26.0852C22.9197 25.6166 22.9197 24.8568 23.3883 24.3882Z" fill="white"/>
<path fill-rule="evenodd" clip-rule="evenodd" d="M16.5999 10.4C12.6235 10.4 9.3999 13.6236 9.3999 17.6C9.3999 20.2912 10.8763 22.6374 13.0634 23.8731C13.974 21.4929 16.2797 19.8026 18.9798 19.8026L18.9906 19.8026C18.9101 19.4126 18.8523 18.9946 18.8523 18.5701C18.8523 16.1731 20.1845 14.0869 22.1487 13.0116C20.8281 11.4164 18.8327 10.4 16.5999 10.4Z" fill="white"/>
<path d="M40.1449 24.69C40.1449 20.78 36.9999 17.72 33.1749 17.72C32.3249 17.72 31.5599 17.89 30.7949 18.145C30.5399 15.255 28.1599 12.875 25.1849 12.875C22.0399 12.875 19.4899 15.425 19.4899 18.57C19.4899 19.25 19.6599 19.93 19.8299 20.525C19.5749 20.44 19.2349 20.44 18.9799 20.44C15.8349 20.44 13.2849 22.99 13.2849 26.135C13.2849 29.195 15.7499 31.745 18.8099 31.83H33.4299C37.1699 31.405 40.1449 28.43 40.1449 24.69Z" fill="white"/>
<path fill-rule="evenodd" clip-rule="evenodd" d="M22.2001 35.1C22.2001 34.7686 21.9315 34.5 21.6001 34.5C21.2688 34.5 21.0001 34.7686 21.0001 35.1V36.2928L20.1859 35.4786C19.9906 35.2833 19.674 35.2833 19.4788 35.4786C19.2835 35.6739 19.2835 35.9904 19.4788 36.1857L20.3932 37.1001H19.1001C18.824 37.1001 18.6001 37.324 18.6001 37.6001C18.6001 37.8762 18.824 38.1001 19.1001 38.1001H20.3931L19.4788 39.0143C19.2836 39.2096 19.2836 39.5262 19.4788 39.7214C19.6741 39.9167 19.9907 39.9167 20.1859 39.7214L21.0001 38.9073V40.1C21.0001 40.4314 21.2688 40.7 21.6001 40.7C21.9315 40.7 22.2001 40.4314 22.2001 40.1V38.9071L23.0143 39.7212C23.2096 39.9165 23.5261 39.9165 23.7214 39.7212C23.9167 39.526 23.9167 39.2094 23.7214 39.0141L22.8074 38.1001H24.1001C24.3762 38.1001 24.6001 37.8762 24.6001 37.6001C24.6001 37.324 24.3762 37.1001 24.1001 37.1001H22.8073L23.7215 36.1859C23.9167 35.9906 23.9167 35.6741 23.7215 35.4788C23.5262 35.2835 23.2096 35.2835 23.0144 35.4788L22.2001 36.293V35.1Z" fill="white"/>
<path fill-rule="evenodd" clip-rule="evenodd" d="M31.2001 34.1C31.2001 33.7686 30.9315 33.5 30.6001 33.5C30.2688 33.5 30.0001 33.7686 30.0001 34.1V35.2928L29.1859 34.4786C28.9906 34.2833 28.674 34.2833 28.4788 34.4786C28.2835 34.6739 28.2835 34.9904 28.4788 35.1857L29.3932 36.1001H28.1001C27.824 36.1001 27.6001 36.324 27.6001 36.6001C27.6001 36.8762 27.824 37.1001 28.1001 37.1001H29.3931L28.4788 38.0143C28.2836 38.2096 28.2836 38.5262 28.4788 38.7214C28.6741 38.9167 28.9907 38.9167 29.1859 38.7214L30.0001 37.9073V39.1C30.0001 39.4314 30.2688 39.7 30.6001 39.7C30.9315 39.7 31.2001 39.4314 31.2001 39.1V37.9071L32.0143 38.7212C32.2096 38.9165 32.5261 38.9165 32.7214 38.7212C32.9167 38.526 32.9167 38.2094 32.7214 38.0141L31.8074 37.1001H33.1001C33.3762 37.1001 33.6001 36.8762 33.6001 36.6001C33.6001 36.324 33.3762 36.1001 33.1001 36.1001H31.8073L32.7215 35.1859C32.9167 34.9906 32.9167 34.6741 32.7215 34.4788C32.5262 34.2835 32.2096 34.2835 32.0144 34.4788L31.2001 35.293V34.1Z" fill="white"/>
</svg>
