<svg width="42" height="42" viewBox="0 0 42 42" fill="none" xmlns="http://www.w3.org/2000/svg">
<path fill-rule="evenodd" clip-rule="evenodd" d="M9.81166 22.3882C10.2803 22.8568 10.2803 23.6166 9.81166 24.0853L7.26608 26.6308C6.79745 27.0995 6.03765 27.0995 5.56902 26.6308C5.10039 26.1622 5.10039 25.4024 5.56902 24.9338L8.11461 22.3882C8.58324 21.9196 9.34303 21.9196 9.81166 22.3882Z" fill="white"/>
<path fill-rule="evenodd" clip-rule="evenodd" d="M7 15.6C7 16.2628 6.46274 16.8 5.8 16.8H2.2C1.53726 16.8 1 16.2628 1 15.6C1 14.9373 1.53726 14.4 2.2 14.4H5.8C6.46274 14.4 7 14.9373 7 15.6Z" fill="white"/>
<path fill-rule="evenodd" clip-rule="evenodd" d="M9.81187 8.81178C9.34324 9.28041 8.58345 9.28041 8.11482 8.81178L5.56923 6.2662C5.1006 5.79757 5.1006 5.03777 5.56923 4.56914C6.03786 4.10052 6.79766 4.10052 7.26629 4.56914L9.81187 7.11473C10.2805 7.58336 10.2805 8.34316 9.81187 8.81178Z" fill="white"/>
<path fill-rule="evenodd" clip-rule="evenodd" d="M16.6 6C15.9373 6 15.4 5.46274 15.4 4.8V1.2C15.4 0.537258 15.9373 0 16.6 0C17.2628 0 17.8 0.537258 17.8 1.2V4.8C17.8 5.46274 17.2628 6 16.6 6Z" fill="white"/>
<path fill-rule="evenodd" clip-rule="evenodd" d="M23.3883 8.81175C22.9197 8.34312 22.9197 7.58332 23.3883 7.11469L25.9339 4.56911C26.4025 4.10048 27.1623 4.10048 27.6309 4.56911C28.0996 5.03774 28.0996 5.79754 27.6309 6.26617L25.0853 8.81175C24.6167 9.28038 23.8569 9.28038 23.3883 8.81175Z" fill="white"/>
<path fill-rule="evenodd" clip-rule="evenodd" d="M23.3883 22.3882C23.857 21.9195 24.6168 21.9195 25.0854 22.3882L27.631 24.9338C28.0996 25.4024 28.0996 26.1622 27.631 26.6308C27.1623 27.0994 26.4025 27.0994 25.9339 26.6308L23.3883 24.0852C22.9197 23.6166 22.9197 22.8568 23.3883 22.3882Z" fill="white"/>
<path fill-rule="evenodd" clip-rule="evenodd" d="M16.5999 8.40002C12.6235 8.40002 9.3999 11.6236 9.3999 15.6C9.3999 18.2912 10.8763 20.6375 13.0634 21.8731C13.974 19.4929 16.2797 17.8025 18.9799 17.8025L18.9906 17.8025C18.9102 17.4126 18.8524 16.9946 18.8524 16.57C18.8524 14.173 20.1845 12.0869 22.1487 11.0116C20.8281 9.41635 18.8327 8.40002 16.5999 8.40002Z" fill="white"/>
<path d="M40.1449 22.69C40.1449 18.78 36.9999 15.72 33.1749 15.72C32.3249 15.72 31.5599 15.89 30.7949 16.145C30.5399 13.255 28.1599 10.875 25.1849 10.875C22.0399 10.875 19.4899 13.425 19.4899 16.57C19.4899 17.25 19.6599 17.93 19.8299 18.525C19.5749 18.44 19.2349 18.44 18.9799 18.44C15.8349 18.44 13.2849 20.99 13.2849 24.135C13.2849 27.195 15.7499 29.745 18.8099 29.83H33.4299C37.1699 29.405 40.1449 26.43 40.1449 22.69Z" fill="white"/>
<path fill-rule="evenodd" clip-rule="evenodd" d="M22.6911 31.5582C23.235 31.6541 23.5982 32.1727 23.5023 32.7166L23.2497 34.1491C23.1538 34.693 22.6351 35.0561 22.0912 34.9602C21.5473 34.8643 21.1842 34.3457 21.2801 33.8018L21.5327 32.3693C21.6286 31.8254 22.1472 31.4623 22.6911 31.5582ZM21.5545 38.0042C22.0984 38.1001 22.4616 38.6187 22.3657 39.1626L22.1131 40.5951C22.0172 41.139 21.4985 41.5022 20.9546 41.4062C20.4107 41.3103 20.0476 40.7917 20.1435 40.2478L20.396 38.8153C20.4919 38.2714 21.0106 37.9083 21.5545 38.0042Z" fill="white"/>
<path fill-rule="evenodd" clip-rule="evenodd" d="M28.9472 30.6304C29.4911 30.7263 29.8543 31.245 29.7584 31.7889L29.5058 33.2213C29.4099 33.7652 28.8912 34.1284 28.3473 34.0325C27.8034 33.9366 27.4403 33.4179 27.5362 32.874L27.7888 31.4416C27.8847 30.8977 28.4033 30.5345 28.9472 30.6304ZM27.8106 37.0764C28.3545 37.1724 28.7177 37.691 28.6218 38.2349L28.3692 39.6674C28.2733 40.2112 27.7546 40.5744 27.2107 40.4785C26.6668 40.3826 26.3037 39.864 26.3996 39.3201L26.6521 37.8876C26.7481 37.3437 27.2667 36.9805 27.8106 37.0764Z" fill="white"/>
</svg>
